<svg width="21" height="21" viewBox="0 0 21 21" fill="none" xmlns="http://www.w3.org/2000/svg">
<path d="M10.5 1.96875C5.79551 1.96875 1.96875 5.79551 1.96875 10.5C1.96875 15.2045 5.79551 19.0312 10.5 19.0312C15.2045 19.0312 19.0312 15.2045 19.0312 10.5C19.0312 5.79551 15.2045 1.96875 10.5 1.96875ZM16.1417 5.90215C17.1568 7.14287 17.7721 8.72197 17.7864 10.4426C17.5465 10.3913 15.1368 9.90322 12.7128 10.2088C12.6615 10.0837 12.6103 9.95859 12.5569 9.8335C12.4052 9.47871 12.2432 9.12393 12.0729 8.77734C14.7656 7.67607 15.9879 6.11133 16.1417 5.90215ZM10.5 3.22383C12.3519 3.22383 14.0437 3.91904 15.3296 5.05928C15.1983 5.2459 14.1012 6.72041 11.511 7.69248C10.3175 5.49814 8.99473 3.69756 8.7917 3.42686C9.35156 3.2915 9.92373 3.22383 10.5 3.22383V3.22383ZM7.40127 3.91699C7.59404 4.17949 8.89629 5.98623 10.1021 8.13135C6.69375 9.03574 3.69141 9.02344 3.36533 9.01934C3.83906 6.75732 5.36279 4.87881 7.40127 3.91699ZM3.21357 10.5103C3.21357 10.4364 3.21562 10.3605 3.21768 10.2867C3.53555 10.2929 7.06699 10.338 10.7071 9.24902C10.9163 9.65713 11.1152 10.0714 11.2978 10.4856C11.2014 10.5123 11.105 10.541 11.0106 10.5718C7.25156 11.7899 5.25205 15.102 5.08594 15.3829C3.92314 14.0909 3.21357 12.3826 3.21357 10.5103ZM10.5 17.7967C8.81426 17.7967 7.26182 17.2225 6.02725 16.2586C6.1585 15.9899 7.63301 13.1414 11.7428 11.7079L11.7899 11.6915C12.8133 14.3493 13.2357 16.5785 13.3444 17.2184C12.4455 17.6026 11.4776 17.7994 10.5 17.7967V17.7967ZM14.5708 16.5519C14.497 16.1089 14.1094 13.9761 13.1558 11.3572C15.4403 10.9922 17.446 11.591 17.6941 11.6689C17.3701 13.6951 16.2073 15.4465 14.5708 16.5519V16.5519Z" fill="#363636"/>
</svg>

