<svg width="20" height="20" viewBox="0 0 20 20" fill="none" xmlns="http://www.w3.org/2000/svg">
<path d="M10.1411 1.05991C9.98131 1.06297 9.82914 1.12858 9.71725 1.24265C9.60536 1.35672 9.5427 1.51013 9.54273 1.66991V13.2649C9.54273 13.4267 9.607 13.5818 9.72139 13.6962C9.83579 13.8106 9.99095 13.8749 10.1527 13.8749C10.3145 13.8749 10.4697 13.8106 10.5841 13.6962C10.6985 13.5818 10.7627 13.4267 10.7627 13.2649V1.66991C10.7627 1.58888 10.7466 1.50867 10.7153 1.43394C10.684 1.35922 10.638 1.29149 10.5803 1.2347C10.5225 1.17791 10.4539 1.13321 10.3787 1.1032C10.3034 1.07319 10.2229 1.05847 10.1419 1.05991H10.1411ZM19.3711 4.53324C19.2914 4.53555 19.213 4.55338 19.1402 4.58574L13.9052 6.92241C13.7981 6.97079 13.7073 7.04905 13.6435 7.14779C13.5798 7.24652 13.5459 7.36155 13.5459 7.47908C13.5459 7.5966 13.5798 7.71163 13.6435 7.81037C13.7073 7.90911 13.7981 7.98736 13.9052 8.03574L19.1402 10.3799C19.2188 10.4153 19.304 10.4337 19.3902 10.4341C19.5297 10.4336 19.6648 10.3854 19.773 10.2975C19.8813 10.2095 19.9561 10.0871 19.985 9.95067C20.014 9.81424 19.9953 9.67201 19.9321 9.54769C19.8689 9.42336 19.765 9.32444 19.6377 9.26741L15.6494 7.47991L19.6377 5.69908C19.785 5.63278 19.9 5.51093 19.9578 5.36012C20.0156 5.20932 20.0113 5.04179 19.9461 4.89408C19.8966 4.78387 19.8155 4.69079 19.7132 4.62657C19.6109 4.56236 19.4918 4.52988 19.3711 4.53324V4.53324ZM0.621063 8.72658C0.527038 8.72487 0.433893 8.74493 0.348903 8.78518C0.263913 8.82543 0.189381 8.88479 0.131128 8.95861C0.0728749 9.03244 0.0324794 9.11873 0.0130971 9.21075C-0.00628518 9.30277 -0.00412943 9.39803 0.019396 9.48908C1.46606 15.0532 6.49856 18.9399 12.2552 18.9399C12.417 18.9399 12.5722 18.8756 12.6866 18.7612C12.801 18.6468 12.8652 18.4917 12.8652 18.3299C12.8652 18.1681 12.801 18.013 12.6866 17.8986C12.5722 17.7842 12.417 17.7199 12.2552 17.7199C9.72755 17.7209 7.27094 16.8834 5.27026 15.3386C3.26958 13.7938 1.83786 11.629 1.1994 9.18324C1.16583 9.05463 1.09117 8.9405 0.986771 8.85822C0.882376 8.77593 0.753961 8.73 0.621063 8.72741V8.72658Z" fill="#363636"/>
</svg>
