<svg width="20" height="20" viewBox="0 0 20 20" fill="none" xmlns="http://www.w3.org/2000/svg">
<path fill-rule="evenodd" clip-rule="evenodd" d="M16.9805 6.81167C17.1163 6.47833 17.5538 5.15583 16.8446 3.36417C16.8446 3.36417 15.7513 3.02 13.2613 4.71833C12.2196 4.42667 11.1055 4.385 10.0013 4.385C8.89714 4.385 7.78297 4.42667 6.7413 4.71833C4.2513 3.01 3.15797 3.36417 3.15797 3.36417C2.44964 5.15583 2.88714 6.47833 3.02214 6.81167C2.17797 7.71833 1.66797 8.885 1.66797 10.3017C1.66797 15.6658 5.1363 16.8742 9.98047 16.8742C14.8246 16.8742 18.3346 15.6658 18.3346 10.3017C18.3346 8.885 17.8238 7.71833 16.9805 6.81167ZM10.0013 15.8533C6.5638 15.8533 3.77214 15.6975 3.77214 12.3642C3.77214 11.5725 4.16797 10.8225 4.83464 10.2075C5.94964 9.18667 7.85547 9.72833 10.0013 9.72833C12.158 9.72833 14.043 9.18667 15.168 10.2075C15.8455 10.8225 16.2305 11.5617 16.2305 12.3642C16.2305 15.6867 13.4388 15.8533 10.0013 15.8533V15.8533ZM7.38714 10.635C6.69964 10.635 6.13714 11.4683 6.13714 12.4892C6.13714 13.51 6.6988 14.3533 7.38714 14.3533C8.07464 14.3533 8.63714 13.52 8.63714 12.4892C8.63714 11.4575 8.07464 10.635 7.38714 10.635ZM12.6155 10.635C11.928 10.635 11.3655 11.4575 11.3655 12.4892C11.3655 13.52 11.928 14.3533 12.6155 14.3533C13.303 14.3533 13.8655 13.52 13.8655 12.4892C13.8655 11.4575 13.3138 10.635 12.6155 10.635Z" fill="#363636"/>
</svg>
