<svg width="87" height="60" viewBox="0 0 87 60" fill="none" xmlns="http://www.w3.org/2000/svg">
<path d="M7.1733 0.454545H9.78693V10.6818C9.7822 11.6193 9.58333 12.4266 9.19034 13.1037C8.79735 13.776 8.24811 14.2945 7.54261 14.6591C6.84186 15.0189 6.02509 15.1989 5.09233 15.1989C4.24006 15.1989 3.47301 15.0473 2.79119 14.7443C2.11411 14.4366 1.5767 13.982 1.17898 13.3807C0.78125 12.7794 0.582386 12.0312 0.582386 11.1364H3.20312C3.20786 11.5294 3.29309 11.8679 3.45881 12.152C3.62926 12.4361 3.86364 12.6539 4.16193 12.8054C4.46023 12.9569 4.8035 13.0327 5.19176 13.0327C5.61316 13.0327 5.97064 12.9451 6.2642 12.7699C6.55777 12.59 6.7803 12.3248 6.93182 11.9744C7.08807 11.6241 7.16856 11.1932 7.1733 10.6818V0.454545ZM14.3135 15H11.501L16.6217 0.454545H19.8746L25.0024 15H22.1899L18.305 3.4375H18.1913L14.3135 15ZM14.4058 9.29688H22.0763V11.4134H14.4058V9.29688ZM26.7183 15V0.454545H29.3532V7.13778H29.5308L35.2055 0.454545H38.4228L32.7978 6.98153L38.4725 15H35.3049L30.9654 8.7642L29.3532 10.6676V15H26.7183ZM40.0534 15V0.454545H49.5136V2.66335H42.6884V6.61222H49.0236V8.82102H42.6884V12.7912H49.5705V15H40.0534ZM3.30256 37H0.490057L5.6108 22.4545H8.86364L13.9915 37H11.179L7.29403 25.4375H7.1804L3.30256 37ZM3.39489 31.2969H11.0653V33.4134H3.39489V31.2969ZM15.7073 37V22.4545H18.3423V34.7912H24.7485V37H15.7073ZM29.4704 22.4545V37H26.8354V22.4545H29.4704ZM40.0286 26.4531C39.9623 25.8329 39.6829 25.3499 39.1905 25.0043C38.7028 24.6586 38.0683 24.4858 37.2871 24.4858C36.7378 24.4858 36.2667 24.5687 35.8737 24.7344C35.4807 24.9001 35.1801 25.125 34.9717 25.4091C34.7634 25.6932 34.6569 26.0175 34.6521 26.3821C34.6521 26.6851 34.7208 26.9479 34.8581 27.1705C35.0001 27.393 35.1919 27.5824 35.4334 27.7386C35.6749 27.8902 35.9424 28.018 36.2359 28.1222C36.5295 28.2263 36.8254 28.3139 37.1237 28.3849L38.4874 28.7259C39.0366 28.8537 39.5645 29.0265 40.0712 29.2443C40.5825 29.4621 41.0394 29.7367 41.4419 30.0682C41.8491 30.3996 42.1711 30.7997 42.4078 31.2685C42.6446 31.7372 42.7629 32.2865 42.7629 32.9162C42.7629 33.7685 42.5451 34.5189 42.1095 35.1676C41.6739 35.8116 41.0442 36.3158 40.2203 36.6804C39.4012 37.0402 38.4092 37.2202 37.2445 37.2202C36.1128 37.2202 35.1304 37.045 34.297 36.6946C33.4684 36.3442 32.8197 35.8329 32.351 35.1605C31.887 34.4882 31.636 33.669 31.5982 32.7031H34.1905C34.2284 33.2098 34.3846 33.6312 34.6592 33.9673C34.9339 34.3035 35.2913 34.5545 35.7317 34.7202C36.1768 34.8859 36.6739 34.9688 37.2232 34.9688C37.7961 34.9688 38.298 34.8835 38.7288 34.7131C39.1644 34.5379 39.5054 34.2964 39.7516 33.9886C39.9978 33.6761 40.1232 33.3116 40.128 32.8949C40.1232 32.5161 40.012 32.2036 39.7942 31.9574C39.5764 31.7064 39.271 31.4981 38.878 31.3324C38.4897 31.1619 38.0352 31.0104 37.5143 30.8778L35.8595 30.4517C34.6616 30.1439 33.7146 29.6776 33.0186 29.0526C32.3273 28.4228 31.9817 27.5871 31.9817 26.5455C31.9817 25.6884 32.2137 24.938 32.6777 24.294C33.1464 23.6501 33.7833 23.1506 34.5882 22.7955C35.3931 22.4356 36.3046 22.2557 37.3226 22.2557C38.3548 22.2557 39.2591 22.4356 40.0357 22.7955C40.8169 23.1506 41.4301 23.6454 41.8751 24.2798C42.3202 24.9096 42.5499 25.634 42.5641 26.4531H40.0286ZM44.2728 24.6634V22.4545H55.8779V24.6634H51.3822V37H48.7685V24.6634H44.2728ZM58.0252 37H55.2127L60.3335 22.4545H63.5863L68.7141 37H65.9016L62.0167 25.4375H61.9031L58.0252 37ZM58.1175 31.2969H65.788V33.4134H58.1175V31.2969ZM73.0649 22.4545V37H70.43V22.4545H73.0649ZM75.7183 37V22.4545H81.1728C82.2902 22.4545 83.2277 22.6487 83.9853 23.0369C84.7476 23.4252 85.3229 23.9697 85.7111 24.6705C86.1041 25.3665 86.3006 26.1785 86.3006 27.1065C86.3006 28.0393 86.1018 28.849 85.704 29.5355C85.3111 30.2173 84.731 30.7453 83.964 31.1193C83.1969 31.4886 82.2547 31.6733 81.1373 31.6733H77.2523V29.4858H80.7822C81.4356 29.4858 81.9706 29.3958 82.3873 29.2159C82.804 29.0312 83.1117 28.7637 83.3106 28.4134C83.5142 28.0582 83.616 27.6226 83.616 27.1065C83.616 26.5904 83.5142 26.1501 83.3106 25.7855C83.107 25.4162 82.7969 25.1368 82.3802 24.9474C81.9635 24.7533 81.4261 24.6562 80.768 24.6562H78.3532V37H75.7183ZM83.2325 30.4091L86.8333 37H83.893L80.356 30.4091H83.2325ZM4.49574 59L0.390625 44.4545H3.22443L5.84517 55.1435H5.98011L8.77841 44.4545H11.3565L14.1619 55.1506H14.2898L16.9105 44.4545H19.7443L15.6392 59H13.0398L10.1278 48.794H10.0142L7.09517 59H4.49574ZM33.5873 51.7273C33.5873 53.2945 33.2937 54.6368 32.7066 55.7543C32.1242 56.867 31.3288 57.7192 30.3202 58.3111C29.3165 58.9029 28.1777 59.1989 26.904 59.1989C25.6304 59.1989 24.4893 58.9029 23.4808 58.3111C22.477 57.7145 21.6815 56.8598 21.0944 55.7472C20.512 54.6297 20.2208 53.2898 20.2208 51.7273C20.2208 50.16 20.512 48.8201 21.0944 47.7074C21.6815 46.59 22.477 45.7353 23.4808 45.1435C24.4893 44.5516 25.6304 44.2557 26.904 44.2557C28.1777 44.2557 29.3165 44.5516 30.3202 45.1435C31.3288 45.7353 32.1242 46.59 32.7066 47.7074C33.2937 48.8201 33.5873 50.16 33.5873 51.7273ZM30.9381 51.7273C30.9381 50.6241 30.7653 49.6937 30.4197 48.9361C30.0788 48.1738 29.6053 47.5985 28.9992 47.2102C28.3932 46.8172 27.6948 46.6207 26.904 46.6207C26.1133 46.6207 25.4149 46.8172 24.8089 47.2102C24.2028 47.5985 23.727 48.1738 23.3813 48.9361C23.0404 49.6937 22.87 50.6241 22.87 51.7273C22.87 52.8305 23.0404 53.7633 23.3813 54.5256C23.727 55.2831 24.2028 55.8584 24.8089 56.2514C25.4149 56.6397 26.1133 56.8338 26.904 56.8338C27.6948 56.8338 28.3932 56.6397 28.9992 56.2514C29.6053 55.8584 30.0788 55.2831 30.4197 54.5256C30.7653 53.7633 30.9381 52.8305 30.9381 51.7273ZM48.8756 51.7273C48.8756 53.2945 48.582 54.6368 47.9949 55.7543C47.4125 56.867 46.617 57.7192 45.6085 58.3111C44.6047 58.9029 43.466 59.1989 42.1923 59.1989C40.9187 59.1989 39.7776 58.9029 38.769 58.3111C37.7652 57.7145 36.9698 56.8598 36.3827 55.7472C35.8003 54.6297 35.5091 53.2898 35.5091 51.7273C35.5091 50.16 35.8003 48.8201 36.3827 47.7074C36.9698 46.59 37.7652 45.7353 38.769 45.1435C39.7776 44.5516 40.9187 44.2557 42.1923 44.2557C43.466 44.2557 44.6047 44.5516 45.6085 45.1435C46.617 45.7353 47.4125 46.59 47.9949 47.7074C48.582 48.8201 48.8756 50.16 48.8756 51.7273ZM46.2264 51.7273C46.2264 50.6241 46.0536 49.6937 45.708 48.9361C45.367 48.1738 44.8936 47.5985 44.2875 47.2102C43.6814 46.8172 42.983 46.6207 42.1923 46.6207C41.4016 46.6207 40.7032 46.8172 40.0972 47.2102C39.4911 47.5985 39.0152 48.1738 38.6696 48.9361C38.3287 49.6937 38.1582 50.6241 38.1582 51.7273C38.1582 52.8305 38.3287 53.7633 38.6696 54.5256C39.0152 55.2831 39.4911 55.8584 40.0972 56.2514C40.7032 56.6397 41.4016 56.8338 42.1923 56.8338C42.983 56.8338 43.6814 56.6397 44.2875 56.2514C44.8936 55.8584 45.367 55.2831 45.708 54.5256C46.0536 53.7633 46.2264 52.8305 46.2264 51.7273ZM56.0957 59H51.1667V44.4545H56.1951C57.6392 44.4545 58.8798 44.7457 59.9167 45.3281C60.9584 45.9058 61.7585 46.7367 62.3173 47.821C62.876 48.9053 63.1553 50.2027 63.1553 51.7131C63.1553 53.2282 62.8736 54.5303 62.3102 55.6193C61.7514 56.7083 60.9442 57.544 59.8883 58.1264C58.8371 58.7088 57.5729 59 56.0957 59ZM53.8016 56.7202H55.9678C56.9811 56.7202 57.8263 56.5355 58.5033 56.1662C59.1804 55.7921 59.6894 55.2358 60.0303 54.4972C60.3712 53.7538 60.5417 52.8258 60.5417 51.7131C60.5417 50.6004 60.3712 49.6771 60.0303 48.9432C59.6894 48.2045 59.1852 47.6529 58.5175 47.2884C57.8547 46.919 57.0308 46.7344 56.046 46.7344H53.8016V56.7202Z" fill="black"/>
</svg>
