<svg width="20" height="20" viewBox="0 0 20 20" fill="none" xmlns="http://www.w3.org/2000/svg">
<g clip-path="url(#clip0_201_909)">
<path d="M0 0V20H20V0H0ZM16.6144 4.73938L15.5431 5.76813C15.4971 5.80185 15.4615 5.84774 15.4402 5.90063C15.4189 5.95352 15.4127 6.01132 15.4225 6.0675V13.6231C15.4126 13.6798 15.4187 13.738 15.44 13.7915C15.4613 13.8449 15.497 13.8913 15.5431 13.9256L16.5881 14.9544V15.1787H11.3213V14.9544L12.405 13.8994C12.5125 13.7919 12.5125 13.7625 12.5125 13.6V7.49L9.495 15.1525H9.08813L5.57562 7.49V12.6269C5.54625 12.8419 5.61812 13.06 5.7675 13.2162L7.18 14.9287V15.1531H3.17937V14.9287L4.59188 13.2162C4.74188 13.06 4.81 12.8419 4.77062 12.6269V6.68938C4.77978 6.60792 4.76917 6.52545 4.73968 6.44897C4.7102 6.37249 4.66271 6.30423 4.60125 6.25L3.34812 4.73938V4.51125H7.24125L10.2525 11.1162L12.8988 4.51125H16.6131L16.6144 4.73938Z" fill="#363636"/>
</g>
<defs>
<clipPath id="clip0_201_909">
<rect width="20" height="20" fill="white"/>
</clipPath>
</defs>
</svg>
