<svg width="20" height="20" viewBox="0 0 20 20" fill="none" xmlns="http://www.w3.org/2000/svg">
<path d="M8.17 16.0042C8.07667 15.9117 8.015 15.7875 7.9225 15.6942C7.18167 14.9492 6.04 14.5775 4.4975 14.5775C2.98417 14.5775 1.8425 14.9492 1.10167 15.6942C1.00917 15.7875 0.9475 15.88 0.855 16.0042H8.17ZM10.57 15.9675V4.30338H13.0358V5.75005C13.3742 5.16505 13.775 4.73421 14.2683 4.42671C14.7858 4.13692 15.3703 3.98834 15.9633 3.99588C17.2267 3.99588 18.2133 4.42671 18.9217 5.25755C19.63 6.08838 20 7.25755 20 8.73505C20 10.1817 19.63 11.32 18.9217 12.1817C18.2133 13.0434 17.2575 13.4742 16.0867 13.4742C15.3775 13.4742 14.7917 13.3517 14.2992 13.0742C13.8058 12.8284 13.3742 12.3975 13.0358 11.8434C13.0667 12.0592 13.0967 12.305 13.0967 12.5817C13.0967 12.8284 13.1275 13.1359 13.1275 13.4742V15.9367H10.57V15.9675ZM12.9117 8.73505C12.9117 9.53505 13.0967 10.1509 13.4975 10.6125C13.8983 11.0434 14.4533 11.2892 15.1308 11.2892C15.8392 11.2892 16.3942 11.0742 16.7642 10.6125C17.1642 10.1817 17.35 9.53505 17.35 8.73505C17.35 7.93505 17.165 7.31921 16.7642 6.85755C16.3642 6.39588 15.8092 6.18088 15.1 6.18088C14.4225 6.18088 13.8675 6.42671 13.4667 6.88921C13.0967 7.28921 12.9125 7.93505 12.9125 8.73505H12.9117ZM6.44167 4.33421V8.98171C6.44167 9.75088 6.2875 10.305 5.97917 10.6434C5.67083 10.9817 5.17833 11.1667 4.5 11.1667C3.8225 11.1667 3.32917 11.0125 3.02083 10.6742C2.7125 10.335 2.55833 9.78171 2.55833 8.98171V4.33338H0V8.98088C0 10.365 0.2775 11.3809 0.831667 12.12C0.924167 12.2117 0.985833 12.335 1.07833 12.4275C1.81833 13.1659 2.95833 13.5359 4.49917 13.5359C6.00917 13.5359 7.14917 13.1659 7.88917 12.4275C7.98083 12.335 8.04333 12.2425 8.13583 12.1192C8.69 11.3809 8.9675 10.3342 8.9675 8.98088V4.33338L6.44167 4.33421Z" fill="#363636"/>
</svg>
